<?xml version="1.0" encoding="UTF-8"?>
<svg width="195px" height="28px" viewBox="0 0 195 28" version="1.1" xmlns="http://www.w3.org/2000/svg" xmlns:xlink="http://www.w3.org/1999/xlink">
    <!-- Generator: Sketch 52.5 (67469) - http://www.bohemiancoding.com/sketch -->
    <title>Logo</title>
    <desc>Created with Sketch.</desc>
    <g id="🖼--SYMBOLS" stroke="none" stroke-width="1" fill="none" fill-rule="evenodd">
        <g id="Navigation/Menu/Primary-Menu" transform="translate(-100.000000, -27.000000)" fill="#E94E2C">
            <g id="Branding/Orange-Logo" transform="translate(100.000000, 27.000000)">
                <g id="Earthworm">
                    <g id="Group" transform="translate(77.277778, 0.000000)">
                        <path d="M116.596036,10.9401026 C115.626358,9.3884359 113.612152,8.49494872 111.094393,8.49494872 C109.777673,8.49494872 108.304444,8.96215385 107.144234,9.73628205 C106.409321,10.2034872 105.905769,10.6672821 104.973518,11.717641 C103.925586,9.50438462 102.29925,8.49494872 99.6283847,8.49494872 C97.0323715,8.49494872 95.0589933,9.50438462 93.429255,11.717641 L93.4224502,11.7244615 C93.276148,10.6161282 93.0924197,9.51120513 92.8610581,8.41651282 L87.3594155,9.77379487 L87.3628179,27.132 L93.8137235,27.132 L93.8171259,27.132 L93.827333,27.132 C93.827333,27.132 93.8205283,21.3106923 93.8171259,18.8109744 L93.8171259,15.6360256 C94.9807386,14.4322051 95.6373972,14.084359 96.7227553,14.0059231 C98.4273459,13.8899744 99.1622592,14.7834615 99.1622592,16.9967179 L99.1622592,27.132 L105.630177,27.132 L105.630177,15.6394359 C106.793789,14.3981026 107.491276,14.0093333 108.535806,14.0093333 C110.318651,14.0093333 110.97531,14.7868718 110.97531,16.9216923 L110.97531,27.132 L117.443371,27.132 L117.443227,15.2506667 C117.450032,13.0749231 117.215268,11.9120256 116.596036,10.9401026" id="Path"></path>
                        <path d="M6.76052184,0.296692308 L6.76052184,11.052641 C8.4651124,9.26566667 10.4418931,8.37217949 12.6092068,8.37217949 C16.5219396,8.37217949 18.8083365,10.8957692 18.8083365,15.2063333 L18.8083365,27.0092308 L12.3404191,27.0092308 L12.3404191,17.1092564 C12.3404191,14.8175641 11.6055058,13.8490513 9.82266057,13.8490513 C8.7373025,13.8490513 7.80845376,14.3537692 6.76392421,15.5200769 L6.76392421,27.012641 L0.296006744,27.012641 L0.296006744,0.300102564 L6.76052184,0.300102564 L6.76052184,0.296692308 Z" id="Path"></path>
                    </g>
                    <polygon id="Path" points="121.30648 8.61538462 127.111111 9.56171702 119.922013 27.2820513 114.654285 27.2820513 111.885351 20.141228 109.156938 27.2820513 103.811545 27.2820513 96.7777778 9.56171702 102.967358 8.61538462 107.505708 20.099631 109.619553 14.5360284 107.657662 9.56171702 113.269818 8.61538462 117.1936 19.1914292"></polygon>
                    <g id="Group" transform="translate(23.833333, 3.589744)">
                        <path d="M109.617462,14.1986325 C109.617462,16.9380057 111.320726,19.1010256 113.52715,19.1010256 C115.696178,19.1010256 116.892882,17.5177493 116.892882,14.6631054 C116.892882,12.0762963 115.152221,9.99125356 113.020591,9.99125356 C111.052148,9.99125356 109.617462,11.727094 109.617462,14.1986325 M123.399963,13.8121368 C123.746736,19.602792 119.374684,24.0407123 113.336766,24.0407123 C110.008431,24.0407123 107.377041,23.0371795 105.554786,21.1080912 C104.045306,19.4875214 103.154577,17.1312536 103.154577,14.7783761 C103.154577,9.18096866 107.101663,5.24481481 113.023991,4.9362963 C118.715137,4.62438746 123.090588,8.37068376 123.399963,13.8121368" id="Shape" fill-rule="nonzero"></path>
                        <path d="M10.6343523,15.1614815 C7.34341463,15.6225641 6.06851626,16.3955556 5.94952575,18.0161254 C5.83393496,19.2908832 6.84025474,20.2571225 8.11855285,20.1384615 C8.97188482,20.0604843 9.51244173,19.829943 10.6343523,19.1349288 L10.6343523,15.1614815 Z M1.3836897,6.89928775 C3.74310163,5.70250712 6.5308794,5.00749288 9.04667886,5.00749288 C11.9500474,5.00749288 14.1938686,5.81777778 15.5503604,7.32307692 C16.4784864,8.40458689 16.9034526,9.98786325 16.9034526,12.3407407 L16.9034526,16.5854131 C16.9034526,19.5180342 17.1754309,19.9045299 19.1472737,19.9045299 L18.3721355,23.6474359 C16.747065,24.0339316 16.0127236,24.1119088 14.92821,24.0339316 C13.0311612,23.918661 11.9092507,23.2236467 11.2905,21.755641 C8.96848509,23.5321652 7.57459621,24.0712251 5.36817209,24.0712251 C2.27101897,24.0712251 0.10199187,21.8336182 0.10199187,18.6670655 C0.10199187,15.3479487 2.34581301,13.3001994 6.64307046,12.6458689 C7.53379946,12.4899145 8.15255014,12.4526211 10.5901558,12.2966667 C10.5119621,10.2523077 9.35265447,9.36404558 6.87425203,9.55729345 C5.05539702,9.70985755 3.5051206,10.137037 1.37689024,11.2151567 L1.37689024,6.89928775 L1.3836897,6.89928775 Z" id="Shape" fill-rule="nonzero"></path>
                        <path d="M50.9687371,18.3246439 C49.4592575,18.7891168 48.724916,18.9416809 47.871584,18.9416809 C45.8963415,18.9416809 45.2775908,18.131396 45.2775908,15.6225641 L45.2775908,10.3336752 L50.5403713,10.3336752 L50.5403713,5.73980057 L45.2775908,5.73980057 L45.3931816,0.257663818 L42.2212344,0.257663818 C41.310107,4.18703704 39.705435,5.81777778 36.217313,6.28225071 L36.217313,10.3302849 L39.0084905,10.3302849 L39.0084905,17.0464957 C39.0084905,19.3247863 39.164878,20.2130484 39.705435,21.3318519 C40.5553672,23.0676923 42.5680068,24.0746154 45.2027967,24.0746154 C47.8749837,24.0746154 49.8876233,23.572849 51.9750569,22.4133618 L50.9687371,18.3246439 Z" id="Path"></path>
                        <path d="M139.140709,5.51264957 C138.164986,5.07190883 137.593832,4.95663818 136.621509,4.95663818 C134.680264,4.95663818 132.85121,6.48905983 131.688503,9.0385755 C131.664705,9.0894302 131.606909,9.20470085 131.606909,9.20470085 L131.603509,9.15384615 C131.447122,7.71635328 131.22274,6.28564103 130.923564,4.87188034 L125.426202,6.21783476 L125.429602,23.4745299 L131.889087,23.4745299 C131.889087,23.4745299 131.878888,14.4054416 131.875488,14.0969231 C131.895886,14.0494587 131.943482,13.9613105 132.038675,13.8223077 C133.374768,11.845755 134.547675,11.0151282 136.043556,11.1270085 C136.519518,11.1575214 136.86969,11.2422792 137.729821,11.5304558 L139.140709,5.51264957 Z" id="Path"></path>
                        <path d="M34.8438225,5.51264957 C33.8681003,5.07190883 33.2969458,4.95663818 32.3246233,4.95663818 C30.383378,4.95663818 28.5543238,6.48905983 27.3916165,9.0385755 C27.3678184,9.0894302 27.310023,9.20470085 27.310023,9.20470085 L27.3032236,9.15723647 C27.146836,7.71974359 26.9224539,6.28903134 26.6232778,4.87527066 L21.125916,6.22122507 L21.1293157,23.4779202 L27.5888008,23.4779202 C27.5888008,23.4779202 27.5786016,14.4088319 27.5752019,14.1003134 C27.5956003,14.052849 27.6431965,13.9647009 27.7383889,13.825698 C29.0744824,11.8491453 30.2473889,11.0185185 31.7432696,11.1303989 C32.2192317,11.1609117 32.5694038,11.2456695 33.4295352,11.5338462 L34.8438225,5.51264957 Z" id="Path"></path>
                    </g>
                    <rect id="Rectangle" x="0" y="0" width="20.2222222" height="6.46153846"></rect>
                    <polygon id="Path" points="20.3246345 27.2820513 0 27.2820513 0 20.8205128 21.6666667 20.8205128"></polygon>
                    <path d="M13.7317128,8.64405355 C13.3708022,10.4024164 12.6389557,11.3597104 11.9371851,11.8283855 C11.753388,11.9580191 11.5495404,12.0643851 11.3323257,12.1474835 C10.2495938,12.5596517 9.0465585,12.2671452 8.26792728,11.4029215 C6.35977955,9.28224952 3.48920353,8.301688 0.722222222,8.70388442 L0.722222222,13.7197059 C0.809108109,13.6764947 0.89265223,13.6299596 0.986221646,13.5967202 C2.06895346,13.184552 3.27198881,14.298071 4.05062003,15.1589707 C6.36980484,17.7350222 10.1092397,18.6358092 13.3507516,17.4026284 C16.5922636,16.1694477 18.774436,13.0183551 18.7777778,9.55813632 L18.7777778,8.64072961 L13.7317128,8.64405355 Z" id="Path"></path>
                </g>
            </g>
        </g>
    </g>
</svg>